<svg xmlns="http://www.w3.org/2000/svg" viewBox="0 0 30 20">
  <!-- 13 stripes: red base, 6 white stripes -->
  <rect width="30" height="20" fill="#B22234"/>
  <rect y="1.54" width="30" height="1.54" fill="#FFF"/>
  <rect y="4.62" width="30" height="1.54" fill="#FFF"/>
  <rect y="7.69" width="30" height="1.54" fill="#FFF"/>
  <rect y="10.77" width="30" height="1.54" fill="#FFF"/>
  <rect y="13.85" width="30" height="1.54" fill="#FFF"/>
  <rect y="16.92" width="30" height="1.54" fill="#FFF"/>
  <!-- Blue canton -->
  <rect width="12" height="10.77" fill="#3C3B6E"/>
  <!-- Stars (simplified dots) -->
  <circle cx="2" cy="1.7" r="0.75" fill="#FFF"/>
  <circle cx="4.8" cy="1.7" r="0.75" fill="#FFF"/>
  <circle cx="7.6" cy="1.7" r="0.75" fill="#FFF"/>
  <circle cx="10.4" cy="1.7" r="0.75" fill="#FFF"/>
  <circle cx="3.4" cy="3.8" r="0.75" fill="#FFF"/>
  <circle cx="6.2" cy="3.8" r="0.75" fill="#FFF"/>
  <circle cx="9" cy="3.8" r="0.75" fill="#FFF"/>
  <circle cx="2" cy="5.9" r="0.75" fill="#FFF"/>
  <circle cx="4.8" cy="5.9" r="0.75" fill="#FFF"/>
  <circle cx="7.6" cy="5.9" r="0.75" fill="#FFF"/>
  <circle cx="10.4" cy="5.9" r="0.75" fill="#FFF"/>
  <circle cx="3.4" cy="8" r="0.75" fill="#FFF"/>
  <circle cx="6.2" cy="8" r="0.75" fill="#FFF"/>
  <circle cx="9" cy="8" r="0.75" fill="#FFF"/>
</svg>
